HIERARCHY
ROOT Hips
{
	OFFSET 0.000000 8.830580 0.000000
	CHANNELS 6 Xposition Yposition Zposition Zrotation Yrotation Xrotation 
	JOINT Spine
	{
		OFFSET 0.000000 0.010000 0.000000
		CHANNELS 3 Zrotation Yrotation Xrotation
		JOINT Spine1
		{
			OFFSET 0.000000 2.459130 0.000000
			CHANNELS 3 Zrotation Yrotation Xrotation
			JOINT Neck
			{
				OFFSET 0.000000 2.484630 0.000000
				CHANNELS 3 Zrotation Yrotation Xrotation
				JOINT Head_virtual
				{
					OFFSET 0.000000 0.000000 0.000000
					CHANNELS 3 Zrotation Yrotation Xrotation
					JOINT Head
					{
						OFFSET 0.000000 0.927525 0.000000
						CHANNELS 3 Zrotation Yrotation Xrotation
						End Site
						{
							OFFSET 0.000000 0.000000 0.000000
						}
					}
				}
				JOINT LeftUpArm_virtual
				{
					OFFSET 0.000000 0.000000 0.000000
					CHANNELS 3 Zrotation Yrotation Xrotation
					JOINT LeftUpArm
					{
						OFFSET 1.248820 0.000000 0.000000
						CHANNELS 3 Zrotation Yrotation Xrotation
						JOINT LeftForeArm
						{
							OFFSET 2.597580 0.000000 0.000000
							CHANNELS 3 Zrotation Yrotation Xrotation
							JOINT LeftHand
							{
								OFFSET 2.455420 0.000000 0.000000
								CHANNELS 3 Zrotation Yrotation Xrotation
								End Site
								{
									OFFSET 0.000000 0.000000 0.000000
								}
							}
						}
					}
				}
				JOINT RightUpArm_virtual
				{
					OFFSET -0.000000 -0.000000 -0.000000
					CHANNELS 3 Zrotation Yrotation Xrotation
					JOINT RightUpArm
					{
						OFFSET -1.248820 -0.000000 -0.000000
						CHANNELS 3 Zrotation Yrotation Xrotation
						JOINT RightForeArm
						{
							OFFSET -2.597580 -0.000000 -0.000000
							CHANNELS 3 Zrotation Yrotation Xrotation
							JOINT RightHand
							{
								OFFSET -2.455420 -0.000000 -0.000000
								CHANNELS 3 Zrotation Yrotation Xrotation
								End Site
								{
									OFFSET 0.000000 0.000000 0.000000
								}
							}
						}
					}
				}
			}
		}
	}
	JOINT LeftUpLeg
	{
		OFFSET 1.271939 0.000000 0.000000
		CHANNELS 3 Zrotation Yrotation Xrotation
		JOINT LeftLowLeg
		{
			OFFSET 0.000000 -4.342910 0.000000
			CHANNELS 3 Zrotation Yrotation Xrotation
			JOINT LeftFoot
			{
				OFFSET 0.000000 -4.487670 0.000000
				CHANNELS 3 Zrotation Yrotation Xrotation
				JOINT LeftToeBase
				{
					OFFSET 0.000000 0.000000 1.515070
					CHANNELS 3 Zrotation Yrotation Xrotation
					End Site
					{
						OFFSET 0.000000 0.000000 0.000000
					}
				}
			}
		}
	}
	JOINT RightUpLeg
	{
		OFFSET -1.271939 0.000000 0.000000
		CHANNELS 3 Zrotation Yrotation Xrotation
		JOINT RightLowLeg
		{
			OFFSET 0.000000 -4.342910 0.000000
			CHANNELS 3 Zrotation Yrotation Xrotation
			JOINT RightFoot
			{
				OFFSET 0.000000 -4.487670 0.000000
				CHANNELS 3 Zrotation Yrotation Xrotation
				JOINT RightToeBase
				{
					OFFSET 0.000000 0.000000 1.515070
					CHANNELS 3 Zrotation Yrotation Xrotation
					End Site
					{
						OFFSET 0.000000 0.000000 0.000000
					}
				}
			}
		}
	}
}
MOTION
Frames: 17
Frame Time: 0.041667
-17.450567 9.269994 49.543816 -173.763053 -0.606799 174.678423 4.979442 -2.826803 -19.801800 -2.424140 3.278429 39.905974 0.000000 0.000000 0.000000 2.165678 2.044471 -7.271420 6.840481 5.757200 -67.001546 -28.650499 -3.421200 -14.205600 -34.262798 -0.463297 36.109299 0.000000 -29.196600 0.000000 9.985080 6.573040 0.330094 29.777700 0.247801 -5.613060 39.091099 4.496910 23.317499 0.000000 23.547800 0.000000 -1.105570 -2.738880 -2.044320 8.221079 12.502216 11.882524 0.000000 0.000000 0.757138 -7.289076 6.101238 8.566143 0.000000 0.000000 -9.122990 4.079691 8.729871 3.868575 0.000000 0.000000 12.757500 20.345577 -25.714374 6.297658 0.000000 0.000000 -14.592683 
-17.386766 9.271218 49.521607 -173.691395 -0.871454 174.628687 4.893481 -2.954618 -19.964867 -2.135861 3.338344 39.791536 0.000000 0.000000 0.000000 2.299859 1.934675 -7.115486 6.821805 5.714290 -66.984684 -28.594900 -3.611710 -14.035200 -34.067101 -0.680270 35.929798 0.000000 -30.273800 0.000000 10.349800 6.623800 0.384366 29.686399 0.062521 -5.888660 39.238300 4.166320 23.260599 0.000000 23.851000 0.000000 -1.313060 -2.652390 -2.217550 8.686474 12.383819 11.987510 0.000000 0.000000 0.727471 -7.573300 5.944792 8.637956 0.000000 0.000000 -9.156540 4.540465 8.653078 4.242255 0.000000 0.000000 12.435500 20.162173 -25.854600 6.145029 0.000000 0.000000 -13.968270 
-17.320233 9.272929 49.498948 -173.605939 -1.146761 174.533627 4.648315 -3.431289 -20.087359 -1.436565 3.374718 39.695225 0.000000 0.000000 0.000000 2.013468 1.943025 -6.852584 6.951446 5.503146 -67.028106 -28.843800 -3.620360 -14.050900 -33.852600 -0.876493 35.989101 0.000000 -31.265200 0.000000 11.030500 6.313040 0.141046 29.360901 0.002864 -5.911990 39.301498 3.997690 23.201799 0.000000 24.199400 0.000000 -1.855040 -2.667120 -2.727220 9.210057 12.334118 12.126093 0.000000 0.000000 0.714234 -7.858353 5.703662 8.737976 0.000000 0.000000 -9.218030 5.054493 8.648490 4.700273 0.000000 0.000000 12.035700 20.005228 -26.113128 6.001788 0.000000 0.000000 -13.439530 
-17.252844 9.273741 49.478091 -173.525081 -1.345754 174.508983 4.409461 -3.878885 -20.211111 -0.684381 3.448754 39.516835 0.000000 0.000000 0.000000 1.743402 1.922768 -6.522143 7.024173 5.283216 -67.084107 -29.110399 -3.725770 -14.011800 -33.669399 -0.953474 35.679100 0.000000 -32.183498 0.000000 11.390300 6.073640 0.175248 29.057600 -0.062533 -5.877640 39.287498 3.873310 23.052200 0.000000 24.661699 0.000000 -2.400970 -2.622240 -3.341080 9.730705 12.387273 12.166211 0.000000 0.000000 0.777252 -8.148217 5.441742 8.796838 0.000000 0.000000 -9.280860 5.569301 8.775748 5.028993 0.000000 0.000000 11.732500 19.974217 -26.332298 5.748255 0.000000 0.000000 -12.883690 
-17.183826 9.274391 49.457855 -173.436116 -1.480689 174.488466 4.198053 -4.287933 -20.339338 0.031074 3.525715 39.370528 0.000000 0.000000 0.000000 1.464460 1.881033 -6.220368 7.176242 5.012247 -67.110496 -29.348600 -3.787560 -14.043700 -33.500500 -0.967407 35.432301 0.000000 -33.052601 0.000000 11.829500 5.763760 -0.332622 28.750700 -0.097835 -5.819010 39.291100 3.840380 22.895800 0.000000 25.069300 0.000000 -3.053350 -2.325360 -3.891470 10.267899 12.469768 12.183254 0.000000 0.000000 0.899503 -8.417296 5.219662 8.844418 0.000000 0.000000 -9.386350 6.122097 9.002830 5.407401 0.000000 0.000000 11.285200 19.846066 -26.674058 5.593157 0.000000 0.000000 -12.394380 
-17.114199 9.274734 49.439524 -173.355771 -1.623041 174.450621 3.936945 -4.784378 -20.413782 0.835736 3.598362 39.231168 0.000000 0.000000 0.000000 1.118373 1.872887 -5.912467 7.307270 4.736808 -67.136315 -29.618799 -3.834670 -14.128000 -33.387001 -0.906435 35.165699 0.000000 -33.864498 0.000000 12.465800 5.555840 -0.861870 28.399401 -0.095004 -5.788260 39.268002 3.833490 22.818800 0.000000 25.499100 0.000000 -3.593000 -2.095810 -4.265160 10.800390 12.585444 12.134441 0.000000 0.000000 1.154700 -8.677361 4.985698 8.837343 0.000000 0.000000 -9.412960 6.646006 9.079770 5.755397 0.000000 0.000000 10.897000 19.577973 -26.903656 5.525950 0.000000 0.000000 -11.775690 
-17.045161 9.274531 49.423077 -173.320083 -1.718921 174.424909 3.646587 -5.262261 -20.486897 1.684525 3.718845 39.147043 0.000000 0.000000 0.000000 0.874104 1.809031 -5.615821 7.485388 4.440356 -67.068042 -29.905800 -3.880590 -14.109800 -33.321701 -0.940178 34.878700 0.000000 -34.530800 0.000000 12.711300 5.321390 -0.551890 27.983700 -0.123112 -5.865520 39.299400 3.893480 22.795200 0.000000 25.830601 0.000000 -3.790910 -1.888660 -5.634960 11.259422 12.626157 12.045400 0.000000 0.000000 1.463810 -8.949322 4.865489 8.813350 0.000000 0.000000 -9.471090 7.083553 9.094703 6.086977 0.000000 0.000000 10.539000 19.562781 -26.840068 5.321588 0.000000 0.000000 -10.761810 
-16.976415 9.274583 49.409130 -173.281506 -1.823422 174.389707 3.347559 -5.759553 -20.507648 2.545958 3.834350 39.051872 0.000000 0.000000 0.000000 0.673787 1.701842 -5.277541 7.768982 4.105650 -67.036570 -30.239300 -3.947120 -14.103200 -33.237000 -0.968374 34.706699 0.000000 -35.043999 0.000000 13.092500 5.245220 -0.700495 27.599899 -0.137764 -5.896960 39.290798 4.062050 22.780399 0.000000 26.087999 0.000000 -4.102190 -1.837850 -6.001330 11.725304 12.707358 11.893514 0.000000 0.000000 1.879710 -9.225928 4.702375 8.784060 0.000000 0.000000 -9.560010 7.498645 8.928816 6.388462 0.000000 0.000000 10.118600 19.025146 -26.793645 5.508342 0.000000 0.000000 -10.271900 
-16.909570 9.274525 49.399053 -173.279526 -1.918588 174.352817 3.040740 -6.252117 -20.511637 3.335673 3.927841 39.036741 0.000000 0.000000 0.000000 0.561883 1.595107 -5.030391 8.183756 3.759506 -66.783488 -30.528799 -3.975770 -14.104000 -33.238499 -1.010370 34.437599 0.000000 -35.434502 0.000000 13.358100 5.104860 -1.178410 27.216499 -0.016746 -5.885880 39.290798 4.274390 22.267300 0.000000 26.418301 0.000000 -3.855210 -2.267750 -6.044760 12.132099 12.768231 11.649451 0.000000 0.000000 2.439050 -9.472906 4.560070 8.724291 0.000000 0.000000 -9.643550 7.884922 8.950073 6.648600 0.000000 0.000000 9.834840 19.027587 -26.781795 5.354051 0.000000 0.000000 -9.773960 
-16.845044 9.275367 49.391154 -173.269124 -2.042663 174.264691 2.765656 -6.652519 -20.448069 4.057205 4.044755 39.028788 0.000000 0.000000 0.000000 0.823466 1.312481 -4.599487 8.682029 3.463757 -66.563893 -30.831699 -4.172150 -14.131700 -33.197102 -0.968207 34.300301 0.000000 -35.638302 0.000000 13.549800 5.023620 -1.150960 26.909201 0.040875 -5.927710 39.256401 4.571720 22.464899 0.000000 26.445101 0.000000 -4.161120 -2.085750 -6.538370 12.518236 12.735619 11.374330 0.000000 0.000000 3.105910 -9.696936 4.486940 8.640032 0.000000 0.000000 -9.745100 8.270559 8.897843 6.918418 0.000000 0.000000 9.553870 18.833114 -26.833723 5.381411 0.000000 0.000000 -9.504850 
-16.782705 9.275793 49.386716 -173.287869 -2.175010 174.219993 2.480856 -7.094840 -20.404710 4.715726 4.104388 39.129144 0.000000 0.000000 0.000000 0.974317 1.105778 -4.342199 9.784906 2.994525 -66.190389 -31.123600 -4.183100 -14.222400 -33.245800 -1.088790 34.272800 0.000000 -35.697498 0.000000 13.583800 4.989210 -1.381430 26.516399 0.193173 -6.003760 39.301498 4.964830 22.800699 0.000000 26.467300 0.000000 -4.455690 -2.276360 -7.277810 12.798749 12.508640 10.923357 0.000000 0.000000 3.980680 -9.911960 4.581315 8.437765 0.000000 0.000000 -9.871800 8.606244 8.873081 7.043159 0.000000 0.000000 9.442020 18.713464 -26.893994 5.322562 0.000000 0.000000 -9.319360 
-16.724391 9.275857 49.385312 -173.327136 -2.336333 174.162259 2.207261 -7.449917 -20.338174 5.324801 4.203174 39.230006 0.000000 0.000000 0.000000 1.584817 0.589188 -3.875217 11.092454 2.440264 -65.743355 -31.342800 -4.368350 -14.264500 -33.345798 -1.114930 34.231899 0.000000 -35.627998 0.000000 13.546500 4.947940 -1.219620 26.165001 0.367840 -6.072280 39.381699 5.298810 22.862200 0.000000 26.421499 0.000000 -4.767440 -2.281540 -7.873440 12.964546 11.959644 10.279781 0.000000 0.000000 5.204140 -10.087266 4.895937 8.073824 0.000000 0.000000 -10.050540 8.892841 8.842528 7.104467 0.000000 0.000000 9.437910 18.628842 -26.925127 5.244782 0.000000 0.000000 -9.181670 
-16.672124 9.273796 49.386785 -173.352750 -2.654902 174.082412 2.114011 -7.609210 -20.198607 5.375187 4.148779 39.265131 0.000000 0.000000 0.000000 2.637979 -0.128426 -3.354340 12.742653 1.912940 -65.335543 -31.349100 -4.493940 -14.293200 -33.410099 -1.118440 34.179298 0.000000 -35.576000 0.000000 13.438300 4.843440 -1.052430 26.043100 0.586856 -6.016900 39.568199 5.865770 22.716000 0.000000 26.104300 0.000000 -4.857090 -2.307230 -8.207010 12.963637 10.728057 9.327424 0.000000 0.000000 6.911320 -10.250612 5.656509 7.427630 0.000000 0.000000 -10.408430 9.201819 9.001870 7.205025 0.000000 0.000000 9.392740 18.707730 -27.179578 5.001670 0.000000 0.000000 -9.045570 
-16.626240 9.270075 49.393235 -173.371057 -3.125405 174.055860 2.062261 -7.773335 -20.066099 5.253693 3.993878 39.399396 0.000000 0.000000 0.000000 4.041017 -1.028810 -2.969625 14.465451 1.411532 -64.852509 -31.335800 -4.515310 -14.399000 -33.511002 -1.227690 34.026901 0.000000 -35.517101 0.000000 13.110600 4.753360 -0.456713 25.979099 0.951016 -6.190220 39.673199 6.370960 23.036699 0.000000 25.786400 0.000000 -4.921550 -2.631780 -8.940420 12.794392 8.806512 7.958824 0.000000 0.000000 9.175170 -10.638741 6.803565 6.498809 0.000000 0.000000 -10.719120 9.397168 8.778047 7.141103 0.000000 0.000000 9.499830 18.850042 -27.130488 4.736113 0.000000 0.000000 -8.947850 
-16.588231 9.266568 49.403170 -173.323192 -3.739672 174.080834 2.119387 -7.887464 -20.047979 5.034446 3.765835 39.669522 0.000000 0.000000 0.000000 6.001029 -2.314105 -2.645772 16.135357 0.945911 -64.403898 -31.252501 -4.714120 -14.410700 -33.649200 -1.238690 33.599602 0.000000 -35.497700 0.000000 12.887200 4.606460 -0.000801 25.965300 1.234830 -6.251660 39.780499 7.048260 23.170200 0.000000 25.490101 0.000000 -5.026740 -2.939870 -9.131500 12.572563 6.377339 6.223361 0.000000 0.000000 11.945300 -11.202164 8.120567 5.414238 0.000000 0.000000 -11.122950 9.642212 8.669760 7.040124 0.000000 0.000000 9.556370 19.052661 -27.329911 4.464822 0.000000 0.000000 -8.945860 
-16.558212 9.262606 49.414275 -173.269241 -4.365017 174.116664 2.285760 -7.908131 -20.004446 4.570659 3.458152 39.945717 0.000000 0.000000 0.000000 8.194849 -3.722110 -2.307972 17.698239 0.562657 -63.990563 -31.085100 -4.747440 -14.544300 -33.904999 -1.290980 33.148300 0.000000 -35.343300 0.000000 12.630300 4.435570 0.786664 26.106600 1.596980 -6.286520 39.768700 7.759880 23.341600 0.000000 25.183201 0.000000 -5.064720 -2.862520 -9.220970 12.382000 3.984665 4.352020 0.000000 0.000000 14.988200 -11.600733 9.164308 4.507046 0.000000 0.000000 -12.478570 9.852430 8.594379 6.952933 0.000000 0.000000 9.534320 19.264762 -27.581167 4.198444 0.000000 0.000000 -8.953140 
-16.536492 9.259721 49.423668 -173.260850 -4.882360 174.125108 2.493421 -7.849798 -19.975633 4.016926 3.150955 40.283777 0.000000 0.000000 0.000000 10.513103 -5.229398 -1.977264 19.227881 0.184550 -63.621598 -30.966801 -4.660440 -14.600300 -34.104000 -1.392370 32.771900 0.000000 -35.230598 0.000000 12.492100 4.425440 0.927516 26.299101 2.012700 -6.224150 39.663101 8.525760 23.593100 0.000000 24.999300 0.000000 -5.099420 -3.245820 -9.278680 12.204096 1.783310 2.552817 0.000000 0.000000 18.042200 -11.864115 9.796310 3.831651 0.000000 0.000000 -13.983750 9.979151 8.533554 6.952696 0.000000 0.000000 9.411200 19.417689 -27.807856 3.987623 0.000000 0.000000 -8.893350 
